<?xml version="1.0" standalone="no"?>
<!DOCTYPE svg PUBLIC "-//W3C//DTD SVG 20010904//EN"
 "http://www.w3.org/TR/2001/REC-SVG-20010904/DTD/svg10.dtd">
<svg version="1.0" xmlns="http://www.w3.org/2000/svg"
 width="632.000000pt" height="632.000000pt" viewBox="0 0 632.000000 632.000000"
 preserveAspectRatio="xMidYMid meet">
<metadata>
Created by potrace 1.14, written by Peter Selinger 2001-2017
</metadata>
<g transform="translate(0.000000,632.000000) scale(0.100000,-0.100000)"
fill="#000000" stroke="none">
<path d="M330 5850 l0 -250 -125 0 -125 0 0 -1155 0 -1155 2933 -2 c1612 -2
3001 -2 3085 0 l152 3 0 1154 0 1154 -152 3 -153 3 -3 248 -2 247 -2805 0
-2805 0 0 -250z"/>
<path d="M330 2240 l0 -350 353 2 352 3 0 345 0 345 -352 3 -353 2 0 -350z"/>
<path d="M3170 2560 l0 -30 -367 -2 -368 -3 -3 -312 -2 -313 705 0 705 0 -2
343 -3 342 -332 3 -333 2 0 -30z"/>
<path d="M5232 2243 l3 -348 353 -3 352 -2 0 350 0 350 -355 0 -355 0 2 -347z"/>
<path d="M208 1753 l-128 -4 0 -389 0 -390 125 0 125 0 2 -242 3 -243 258 -3
257 -2 0 -140 0 -140 2315 0 2315 0 0 140 0 140 230 0 230 0 2 243 3 242 153
3 152 3 0 388 0 389 -302 7 c-167 3 -341 5 -388 3 l-85 -3 -3 -282 -2 -283
-380 0 -380 0 0 280 0 280 -385 0 -385 0 -2 -277 -3 -278 -52 -3 -53 -3 0
-103 0 -103 -689 -8 c-379 -4 -694 -4 -700 -1 -7 5 -11 47 -11 112 0 86 -3
104 -15 104 -13 0 -15 38 -15 280 l0 280 -395 0 -395 0 0 -280 0 -280 -380 0
-380 0 -2 283 -3 282 -255 0 c-140 1 -312 -1 -382 -2z"/>
</g>
</svg>
